<?xml version="1.0" encoding="UTF-8" standalone="no"?>
<svg
   width="101.98428"
   height="102.48472"
   viewBox="0 0 101.98428 102.48472"
   fill="none"
   version="1.1"
   id="svg35"
   sodipodi:docname="Drawing.svg"
   inkscape:version="1.3 (0e150ed6c4, 2023-07-21)"
   xmlns:inkscape="http://www.inkscape.org/namespaces/inkscape"
   xmlns:sodipodi="http://sodipodi.sourceforge.net/DTD/sodipodi-0.dtd"
   xmlns="http://www.w3.org/2000/svg"
   xmlns:svg="http://www.w3.org/2000/svg">
  <defs
     id="defs35">
    <inkscape:path-effect
       effect="spiro"
       id="path-effect38"
       is_visible="true"
       lpeversion="1" />
  </defs>
  <sodipodi:namedview
     id="namedview35"
     pagecolor="#ffffff"
     bordercolor="#000000"
     borderopacity="0.25"
     inkscape:showpageshadow="2"
     inkscape:pageopacity="0.0"
     inkscape:pagecheckerboard="0"
     inkscape:deskcolor="#d1d1d1"
     inkscape:zoom="3.5509355"
     inkscape:cx="-526.9034"
     inkscape:cy="-120.25"
     inkscape:window-width="1920"
     inkscape:window-height="1052"
     inkscape:window-x="0"
     inkscape:window-y="0"
     inkscape:window-maximized="1"
     inkscape:current-layer="g40" />
  <g
     id="g40"
     transform="translate(562.77828,170.40829)">
    <path
       style="fill:#000000;fill-opacity:1;stroke:#ca0000;stroke-width:2.64567;stroke-linecap:round;stroke-linejoin:round;stroke-opacity:1"
       d="m -524.04538,-74.04026 -12.63539,-9.608503"
       id="path36"
       inkscape:export-filename="Drawing.svg"
       inkscape:export-xdpi="96"
       inkscape:export-ydpi="96" />
    <path
       style="fill:#000000;fill-opacity:1;stroke:#ca0000;stroke-width:2.64567;stroke-linecap:round;stroke-linejoin:round;stroke-opacity:1"
       d="m -541.19189,-87.099143 -9.90503,-12.40432"
       id="path36-3" />
    <path
       style="fill:#000000;fill-opacity:1;stroke:#ca0000;stroke-width:2.64567;stroke-linecap:round;stroke-linejoin:round;stroke-opacity:1"
       d="m -554.81194,-105.39639 -5.77274,-14.7869"
       id="path36-6" />
    <path
       style="fill:#000000;fill-opacity:1;stroke:#ca0000;stroke-width:2.64567;stroke-linecap:round;stroke-linejoin:round;stroke-opacity:1"
       d="m -561.45545,-127.62848 0.53454,-15.86478"
       id="path36-3-7" />
    <path
       style="fill:#000000;fill-opacity:1;stroke:#ca0000;stroke-width:2.64567;stroke-linecap:round;stroke-linejoin:round;stroke-opacity:1"
       d="m -558.93944,-149.90944 7.30724,-14.09188"
       id="path36-3-7-5" />
    <path
       style="fill:#000000;fill-opacity:1;stroke:#ca0000;stroke-width:2.64567;stroke-linecap:round;stroke-linejoin:round;stroke-opacity:1"
       d="m -514.50892,-147.96852 -8.12368,-13.63754"
       id="path36-3-7-5-6" />
    <path
       style="fill:#000000;fill-opacity:1;stroke:#ca0000;stroke-width:2.12168;stroke-linecap:round;stroke-linejoin:round;stroke-opacity:1"
       d="m -548.9388,-167.05802 9.47516,-2.31986"
       id="path36-3-7-5-3" />
    <path
       style="fill:#000000;fill-opacity:1;stroke:#ca0000;stroke-width:2.12168;stroke-linecap:round;stroke-linejoin:round;stroke-opacity:1"
       d="m -534.10347,-169.08618 9.00508,3.75084"
       id="path36-3-7-5-3-5" />
    <path
       style="fill:#000000;fill-opacity:1;stroke:#ca0000;stroke-width:2.64567;stroke-linecap:round;stroke-linejoin:round;stroke-opacity:1"
       d="m -499.87483,-73.431267 12.94413,-9.188372"
       id="path36-2" />
    <path
       style="fill:#000000;fill-opacity:1;stroke:#ca0000;stroke-width:2.64567;stroke-linecap:round;stroke-linejoin:round;stroke-opacity:1"
       d="m -482.38038,-86.774704 9.90503,-12.404319"
       id="path36-3-9" />
    <path
       style="fill:#000000;fill-opacity:1;stroke:#ca0000;stroke-width:2.64567;stroke-linecap:round;stroke-linejoin:round;stroke-opacity:1"
       d="m -468.76033,-105.07195 5.77274,-14.7869"
       id="path36-6-1" />
    <path
       style="fill:#000000;fill-opacity:1;stroke:#ca0000;stroke-width:2.64567;stroke-linecap:round;stroke-linejoin:round;stroke-opacity:1"
       d="m -462.11682,-127.30404 -0.53454,-15.86478"
       id="path36-3-7-2" />
    <path
       style="fill:#000000;fill-opacity:1;stroke:#ca0000;stroke-width:2.64567;stroke-linecap:round;stroke-linejoin:round;stroke-opacity:1"
       d="m -464.63283,-149.585 -7.30724,-14.09188"
       id="path36-3-7-5-7" />
    <path
       style="fill:#000000;fill-opacity:1;stroke:#ca0000;stroke-width:2.64567;stroke-linecap:round;stroke-linejoin:round;stroke-opacity:1"
       d="m -509.0697,-147.64786 8.13638,-13.62998"
       id="path36-3-7-5-6-0" />
    <path
       style="fill:#000000;fill-opacity:1;stroke:#ca0000;stroke-width:2.12168;stroke-linecap:round;stroke-linejoin:round;stroke-opacity:1"
       d="m -474.63347,-166.73358 -9.47516,-2.31986"
       id="path36-3-7-5-3-9" />
    <path
       style="fill:#000000;fill-opacity:1;stroke:#ca0000;stroke-width:2.12168;stroke-linecap:round;stroke-linejoin:round;stroke-opacity:1"
       d="m -489.4688,-168.76174 -9.00508,3.75084"
       id="path36-3-7-5-3-5-3" />
    <path
       style="fill:#000000;fill-opacity:1;stroke:#ca0000;stroke-width:1.99757;stroke-linecap:round;stroke-linejoin:round;stroke-opacity:1"
       d="m -521.50608,-72.453784 8.47831,3.53143"
       id="path36-3-7-5-3-5-6" />
    <path
       style="fill:#000000;fill-opacity:1;stroke:#ca0000;stroke-width:2.02139;stroke-linecap:round;stroke-linejoin:round;stroke-opacity:1"
       d="m -510.83005,-68.938594 8.89957,-2.67861"
       id="path36-3-7-5-3-5-1" />
    <path
       id="path37"
       style="fill:#ca0000;fill-opacity:1;stroke:#ca0000;stroke-width:1.62885;stroke-linecap:round;stroke-linejoin:round;stroke-opacity:1"
       d="m -508.41287,-146.52279 c 0,0.28729 -0.0301,0.64439 -0.2538,0.91166 -0.15726,0.18792 -0.28005,0.67783 -0.50655,0.80098 -0.3133,0.17034 -0.74131,-0.0603 -0.98122,-0.0603 -0.38793,0 -0.92738,-0.12554 -1.14573,-0.45909 -0.15316,-0.23398 -0.42522,-0.72667 -0.0493,-0.93275 0.38594,-0.21159 -0.1649,-0.92075 0.10896,-1.1758 0.10951,-0.10199 0.51687,-0.51497 0.74363,-0.54379 0.19653,-0.025 0.2115,0.32775 0.34247,0.32775 0.29232,0 0.78249,-0.12093 0.99016,0.0821 0.26122,0.25531 0.75141,0.62107 0.75141,1.04932 z"
       sodipodi:nodetypes="sssssssssss" />
    <path
       style="fill:none;fill-opacity:1;stroke:#ca0000;stroke-width:2.64567;stroke-linecap:round;stroke-linejoin:round;stroke-opacity:1"
       d="m -537.15507,-153.16393 c -1.02641,1.36231 -2.29497,2.54163 -3.7284,3.46611 -2.1825,1.40759 -4.6965,2.20304 -7.19799,2.90101 -2.5015,0.69796 -5.04345,1.32098 -7.39008,2.4336 -2.34664,1.11263 -4.52207,2.77662 -5.73525,5.07289 -0.60658,1.14813 -0.95796,2.43995 -0.94276,3.73839 0.0152,1.29843 0.40613,2.60067 1.16832,3.65197 0.78145,1.07786 1.934,1.86561 3.19847,2.28222 1.26447,0.4166 2.6352,0.47146 3.94637,0.24063 2.62234,-0.46166 4.93415,-2.02172 6.8618,-3.85854 1.92766,-1.83683 3.54634,-3.96992 5.36764,-5.91226 1.8213,-1.94233 3.90998,-3.73158 6.41748,-4.62726 2.22703,-0.7955 4.71765,-0.8317 6.96686,-0.10124 2.24921,0.73045 4.24332,2.2231 5.57802,4.1753 1.33469,1.9522 2.00184,4.35208 1.86618,6.71303 -0.13567,2.36096 -1.07332,4.66862 -2.62284,6.45509"
       id="path38"
       inkscape:path-effect="#path-effect38"
       inkscape:original-d="m -537.15507,-153.16393 c -1.87655,0.0567 -1.85184,3.45631 -3.7284,3.46611 -1.87655,0.01 -18.09665,11.39677 -20.09776,17.79786 -8.42097,26.9368 22.82341,-15.91649 25.79176,-11.87521 2.96835,4.04128 17.1583,12.60608 11.78822,17.24218"
       sodipodi:nodetypes="ccszc"
       transform="translate(22.642939,5.2439965)" />
    <path
       style="fill:none;fill-opacity:1;stroke:#979797;stroke-width:2.64567;stroke-linecap:round;stroke-linejoin:round;stroke-opacity:1"
       d="m -500.8345,-124.00062 c -1.18437,0.68052 -2.28166,3.21724 -3.10203,4.58556 -0.82038,1.36831 -1.88317,3.56991 -1.88317,3.56991 l -9.54254,8.12838 -0.0604,0.0416 9.72349,-8.21562 c 0,0 3.55554,-1.47665 4.89984,-2.36002 1.34429,-0.88337 2.77091,-1.59062 3.18417,-2.75839 0.41326,-1.16777 0.20614,-2.56599 -0.56579,-3.16952 -0.77193,-0.60353 -1.46918,-0.50244 -2.65355,0.17808 z"
       id="path39"
       sodipodi:nodetypes="zzcccczzzz" />
    <path
       style="fill:none;fill-opacity:1;stroke:#979797;stroke-width:2.64567;stroke-linecap:round;stroke-linejoin:round;stroke-opacity:1"
       d="m -517.77929,-105.31803 -8.21786,6.528447"
       id="path40" />
  </g>
</svg>
