<svg width="621" height="481" viewBox="0 0 621 481" fill="none" xmlns="http://www.w3.org/2000/svg">
<rect width="621" height="481" fill="white"/>
<path d="M169.541 108.342H329.256C341.19 108.342 353.266 118.208 350.797 129.883L351.395 193.289L333.954 212.118C321.814 225.224 330.682 224.701 325.477 235.44C325.477 235.44 318.606 253.212 318.606 262.831C318.606 272.571 317.073 282.479 312.335 289.311C308.68 294.582 318.535 305.339 318.535 305.339L169.541 304.581C157.607 304.52 148 294.974 148 283.04V129.883C148 117.95 157.607 108.342 169.541 108.342Z" fill="white" stroke="black" stroke-width="7.14705" stroke-linecap="round" stroke-linejoin="round"/>
<path d="M249.399 248.246C272.731 248.246 291.646 229.539 291.646 206.462C291.646 183.385 272.731 164.677 249.399 164.677C226.066 164.677 207.151 183.385 207.151 206.462C207.151 229.539 226.066 248.246 249.399 248.246Z" stroke="black" stroke-width="9.6545" stroke-linecap="round" stroke-linejoin="round"/>
<path d="M249.281 224.305C259.016 224.305 266.908 216.414 266.908 206.679C266.908 196.944 259.016 189.052 249.281 189.052C239.546 189.052 231.655 196.944 231.655 206.679C231.655 216.414 239.546 224.305 249.281 224.305Z" fill="black" stroke="black" stroke-width="9.29201" stroke-linecap="round" stroke-linejoin="round"/>
<path d="M260.5 233L258.5 233.5L256.5 232L255 234.5L250 235.5L249 238L245.5 235.5L243.5 239L242.5 240L240 239L238.5 242" stroke="black"/>
<path d="M224.5 195L221.5 197V198.5L219 197V198.5L216.5 197" stroke="black"/>
<path d="M300.5 162L297.5 158L292 159.5V156H290.5L292 153L288 150" stroke="black"/>
<path d="M304.5 215.5L302 214.5L301.5 216L300.5 214.5L299.5 216L298.5 214.5V209.5L295.5 208.5" stroke="black"/>
<path d="M317.404 124.347H299.542C292.281 124.347 286.394 130.234 286.394 137.495V154.97C286.394 162.232 292.281 168.118 299.542 168.118H317.404C324.665 168.118 330.552 162.232 330.552 154.97V137.495C330.552 130.234 324.665 124.347 317.404 124.347Z" stroke="black" stroke-width="3.24283" stroke-linecap="round" stroke-linejoin="round"/>
<path d="M308.565 158.995C316.156 158.995 322.31 152.841 322.31 145.25C322.31 137.659 316.156 131.505 308.565 131.505C300.973 131.505 294.819 137.659 294.819 145.25C294.819 152.841 300.973 158.995 308.565 158.995Z" stroke="black" stroke-width="3.24283" stroke-linecap="round" stroke-linejoin="round"/>
<path d="M202.663 97.5529H174.045C172.544 97.5529 171.328 98.7695 171.328 100.27V103.892C171.328 105.392 172.544 106.609 174.045 106.609H202.663C204.164 106.609 205.38 105.392 205.38 103.892V100.27C205.38 98.7695 204.164 97.5529 202.663 97.5529Z" fill="black" stroke="black" stroke-width="2.72875" stroke-linecap="round" stroke-linejoin="round"/>
<path d="M326.869 92H296.437C294.034 92 292.086 93.9478 292.086 96.3506V102.149C292.086 104.552 294.034 106.499 296.437 106.499H326.869C329.272 106.499 331.22 104.552 331.22 102.149V96.3506C331.22 93.9478 329.272 92 326.869 92Z" stroke="black" stroke-width="3.24283" stroke-linecap="round" stroke-linejoin="round"/>
<path d="M299.842 95.5423V102.957" stroke="black" stroke-width="1.26236" stroke-linecap="round" stroke-linejoin="round"/>
<path d="M305.842 95.5423V102.957" stroke="black" stroke-width="1.26236" stroke-linecap="round" stroke-linejoin="round"/>
<path d="M311.842 95.5423V102.957" stroke="black" stroke-width="1.26236" stroke-linecap="round" stroke-linejoin="round"/>
<path d="M317.842 95.5423V102.957" stroke="black" stroke-width="1.26236" stroke-linecap="round" stroke-linejoin="round"/>
<path d="M323.842 95.5423V102.957" stroke="black" stroke-width="1.26236" stroke-linecap="round" stroke-linejoin="round"/>
<path d="M177.963 138.195C182.554 138.195 186.275 134.474 186.275 129.883C186.275 125.293 182.554 121.571 177.963 121.571C173.373 121.571 169.651 125.293 169.651 129.883C169.651 134.474 173.373 138.195 177.963 138.195Z" fill="#FF0000" stroke="white" stroke-width="3.5882" stroke-linecap="round" stroke-linejoin="round"/>
<path d="M525.705 310.305C526.101 308.591 526.313 308.805 516.741 301.268C502.039 289.692 500.749 288.246 496.173 278.214C482.364 247.938 466.01 221.792 456.574 214.903C453.611 212.74 453.28 212.598 448.744 211.539C437.568 208.931 416.061 206.336 399.629 205.612C391.15 205.238 388.045 206.051 384.132 209.67C382.283 211.38 382.283 211.38 377.429 209.512C362.973 203.95 356.979 203.263 350.797 206.462C341.124 211.467 336.038 220.713 337.789 230.11C338.495 233.896 338.661 233.46 336.206 234.271C329.684 236.426 325.384 243.077 323.864 253.36C323.126 258.358 324.052 265.417 325.813 268.215C326.805 269.792 326.842 270.058 326.152 270.669C321.3 274.961 319.331 278.524 318.194 285.066C316.75 293.378 319.028 300.579 324.308 304.387C327.021 306.343 327.021 306.343 326.06 307.142C316.05 315.46 321.399 332.202 335.372 336.285C338.369 337.16 338.695 337.343 340.598 339.222C352.03 350.502 364.788 359.862 381.598 369.301C405.452 382.696 418.797 386.113 442.955 385.011C452.628 384.569 456.555 385.567 461.202 389.647C464.495 392.538 464.733 392.665 466.196 392.314C467.884 391.909 468.435 391.19 468.364 389.488C468.278 387.431 466.976 385.981 462.739 383.226C456.372 379.088 452.854 378.408 440.522 378.935C427.375 379.497 417.506 378.302 408.068 375.006C393.261 369.834 369.516 356.147 356.383 345.214C349.09 339.143 349.052 339.405 357.049 340.586C375.457 343.305 383.088 343.266 387.421 340.427C394.408 335.85 396.989 324.164 392.588 317.035C391.462 315.212 391.438 315.031 392.246 314.498C392.724 314.183 394.1 312.56 395.303 310.892C400.45 303.755 402.279 293.863 399.495 288.227C398.855 286.932 398.737 286.247 399.112 286.002C404.525 282.451 409.314 271.835 409.511 262.949C409.59 259.371 408.742 257.666 405.569 255.018C404.085 253.78 403.07 252.74 403.312 252.706C403.816 252.635 416.312 256.988 416.317 257.236C416.319 257.325 416.062 258.717 415.747 260.329C413.084 273.954 416.92 288.247 426.218 299.338C434.739 309.502 440.35 314.135 443.206 311.65C445.201 309.915 445.615 309.238 441.194 305.385C436.48 301.277 438.533 303.459 434.279 299.055C423.51 287.906 419.038 274.44 421.789 261.447C422.265 259.2 422.265 259.2 424.573 259.87C430.626 261.627 429.833 255.958 428.52 255.011C428.032 254.659 411.395 248.737 406.798 247.279C405.722 246.938 405.722 246.938 407.593 241.185C409.616 234.966 409.642 234.238 407.887 232.972C405.341 231.136 404.001 232.37 402.214 238.2C398.741 249.533 392.307 259.291 385.91 262.925C382 265.147 371.703 265.737 369.137 263.887C368.712 263.58 370.065 259.541 373.526 250.786C375.943 244.674 376.971 241.544 379.769 231.784C382.711 221.525 386.627 214.622 390.676 212.56C393.588 211.077 404.081 211.481 424.514 213.862C442.735 215.986 451.254 217.911 454.222 220.576C463.179 228.618 481.465 259.197 492.052 283.835C493.203 286.515 494.784 289.421 495.736 290.609C500.402 296.432 520.416 312.905 522.754 312.847C524.204 312.809 525.356 311.819 525.705 310.305ZM383.267 335.721C378.614 337.926 342.531 333.221 334.331 329.34C327.497 326.106 324.637 317.241 329.001 312.815C332.601 309.164 335.552 308.666 342.951 310.459C354.983 313.374 369.95 315.928 379.622 316.716C384.151 317.085 384.602 317.204 385.789 318.334C390.581 322.898 389.123 332.947 383.267 335.721ZM387.927 310.115C384.902 311.846 366.777 309.649 346.539 305.096C327.365 300.783 324.925 299.308 324.085 291.524C322.961 281.105 328.933 272.883 335.833 275.352C344.562 278.474 360.596 282.131 377.042 284.751C391.155 286.998 392.219 287.37 393.898 290.64C396.447 295.607 392.866 307.288 387.927 310.115ZM396.055 280.585C392.8 282.582 343.586 272.596 333.739 267.942C326.971 264.743 329.319 244.667 336.915 240.787C340.964 238.718 343.365 238.904 351.082 241.888C354.195 243.091 359.143 244.887 362.079 245.88C365.015 246.873 367.533 247.846 367.674 248.042C367.815 248.238 367.037 250.651 365.944 253.405C361.106 265.594 361.67 268.452 369.285 270.323C380.395 273.053 389.523 270.034 397.16 261.105C399.72 258.112 399.522 258.136 402.343 260.46C405.466 263.032 400.912 277.606 396.055 280.585ZM363.405 239.845C353.163 236.352 345.784 233.345 344.912 232.31C343.784 230.971 343.155 226.971 343.635 224.19C344.801 217.432 353.303 209.909 359.072 210.531C361.79 210.823 366.898 212.221 372.081 214.09C379.868 216.899 379.278 216.12 377.185 220.828C375.385 224.876 373.568 230.498 371.739 237.676C371.21 239.755 370.665 241.621 370.528 241.823C370.392 242.025 367.186 241.135 363.405 239.845Z" fill="black"/>
<path d="M342.754 224.988C346 239 341.254 237.972 340.5 239C339.767 239.999 338 239.5 337 240.5C328.5 246.5 329.557 256.476 329.077 261C333.5 267.5 332.219 281.701 332.219 284.535C332.219 287.37 329.393 296.211 329.077 298.502C328.761 300.792 327.284 317.328 327.284 317.328C327.284 317.328 323.973 338.081 328.694 341.802C333.415 345.523 330.697 305.687 334.274 303.159C337.47 300.9 338.966 269.806 338.681 266.534C337.884 257.387 339.818 323.536 348.207 325.178C348.564 323.496 346.916 310.873 346.135 302.708C344.681 287.51 349.195 276.187 351.205 272.271C353.945 266.931 357.28 296.635 358.357 298.35C362.187 304.445 349.186 336.738 360.064 339.09C370.943 341.442 362.657 336.409 361.34 326.814C360.022 317.219 360.433 320.791 362.738 311.068C365.042 301.345 370.873 301.837 365.852 289.991C360.832 278.145 357.049 278.603 359.176 269.909C361.304 261.215 357.662 264.647 360.109 254.322C362.556 243.997 362.884 246.96 363.959 236.345C365.034 225.731 369.491 228.886 366.104 217.42C365 212 363.262 211.252 361.5 211C349 207 342.754 224.988 342.754 224.988Z" fill="#FF0000"/>
<path d="M315.5 264L288.5 256.5L260 266L248.5 260L239 264L233.5 260H227.5" stroke="black"/>
<path d="M317.5 252L303 243.5L305.5 230.5L289.5 228.5V223H282V217.5L276 215.5L273.5 212.5V208.5H269.5L261 203.5H245L229.5 193L225 195L221.5 191L220 194L216.5 191L213 193" stroke="black"/>
<path d="M322.5 235.5L319.5 229H312V222L304.5 215.5L319.5 205.5L314 200L312 193.5L308 191.5L310 185.5L304.5 175L312 172.5L304.5 168.5V164L301 162L308 159.5L304.5 154H308L304.5 151L306.5 148L304.5 144.5" stroke="black"/>
<path d="M314 275.5L300.5 279.5L297 272.5L293.5 279.5L290 284H281L278.5 281.5L271 290L264 284L260 292.5L246 281.5L234.5 286L228.5 281.5L220.5 284" stroke="black"/>
<path d="M316.5 258.5L310 255H299L297.5 251H292L290.5 244.5L284 248L281 240.5H270L267 235L260.5 233V227.5L258 221H250V215.5L237 192.5L234.5 187.5L237 181H227L229.5 176.5H227L225.5 175.5" stroke="black"/>
<path d="M290 284L288.5 287.5L290 290L286.5 291.5L285.5 294.5L286.5 296.5" stroke="black"/>
<path d="M312.5 196L316.5 195V197L322 196V194L324.5 196V193L327.5 194L331.5 192L334.5 194" stroke="black"/>
<path d="M272.5 262L269.5 260L271.5 257H270L269.5 255.5L267 256L269 251.5H267L265 251V249" stroke="black"/>
<path d="M256 289.5L254.5 290.5L253.5 289.5L253 293L249.5 290.5L248.5 295L246.5 295.5V297L244.5 297.5V300H242.5L241.5 301.5L240.5 302" stroke="black"/>
<path d="M354 202.368V201.316L355.867 199.842L356.667 199L358 201.316H355.867V203H354V202.368Z" fill="black" stroke="black"/>
<path d="M365 186C365.291 187 366.482 189 368.924 189C372.063 188.467 370.958 187.333 370.014 186.833L368.924 186H365Z" fill="black" stroke="black"/>
<path d="M331.062 232.117C332.05 232.446 334.373 232.601 335.759 230.592C337.103 227.705 335.543 227.97 334.595 228.464L333.29 228.888L331.062 232.117Z" fill="black" stroke="black"/>
<path d="M322 305C322.291 306 323.482 308 325.924 308C329.063 307.467 327.958 306.333 327.014 305.833L325.924 305H322Z" fill="black" stroke="black"/>
<path d="M373.25 201.864L372 200.065C372 198.625 372.5 198.951 372.75 199.294H374C374.333 199.294 375 199.808 375 201.864C375 203.921 373.833 202.721 373.25 201.864Z" fill="black" stroke="black"/>
<path d="M364.618 199.824L366.305 198.426C367.739 198.304 367.457 198.83 367.137 199.108L367.243 200.354C367.271 200.686 366.815 201.394 364.766 201.568C362.716 201.742 363.813 200.478 364.618 199.824Z" fill="black" stroke="black"/>
<path d="M358.955 179.212L360.719 176.189C360.432 176.021 360.388 175.764 362.519 176.081C365.182 176.478 365.038 178.709 361.546 180.724C358.753 182.335 358.655 180.387 358.955 179.212Z" fill="black" stroke="black"/>
</svg>
