<?xml version="1.0" encoding="UTF-8" standalone="no"?>
<!-- Created with Inkscape (http://www.inkscape.org/) -->

<svg
   width="210mm"
   height="297mm"
   viewBox="0 0 210 297"
   version="1.1"
   id="svg1"
   xml:space="preserve"
   inkscape:version="1.3 (0e150ed6c4, 2023-07-21)"
   sodipodi:docname="drawing.svg"
   xmlns:inkscape="http://www.inkscape.org/namespaces/inkscape"
   xmlns:sodipodi="http://sodipodi.sourceforge.net/DTD/sodipodi-0.dtd"
   xmlns="http://www.w3.org/2000/svg"
   xmlns:svg="http://www.w3.org/2000/svg"><sodipodi:namedview
     id="namedview1"
     pagecolor="#ffffff"
     bordercolor="#000000"
     borderopacity="0.25"
     inkscape:showpageshadow="2"
     inkscape:pageopacity="0.0"
     inkscape:pagecheckerboard="0"
     inkscape:deskcolor="#d1d1d1"
     inkscape:document-units="mm"
     inkscape:zoom="0.76078844"
     inkscape:cx="184.01962"
     inkscape:cy="512.62609"
     inkscape:window-width="1920"
     inkscape:window-height="1052"
     inkscape:window-x="0"
     inkscape:window-y="0"
     inkscape:window-maximized="1"
     inkscape:current-layer="layer1" /><defs
     id="defs1" /><g
     inkscape:label="Layer 1"
     inkscape:groupmode="layer"
     id="layer1"><path
       id="rect1"
       style="fill:#ffffff;stroke:#000000;stroke-width:1.89099;stroke-linecap:round;stroke-linejoin:round"
       d="m 29.462074,77.335937 h 42.257977 c 3.157455,0 6.352632,2.610239 5.699377,5.699378 l 0.158201,16.776005 -4.614692,4.98201 c -3.211993,3.46766 -0.865705,3.32906 -2.242701,6.17043 0,0 -1.818053,4.70234 -1.818053,7.24729 0,2.5771 -0.405634,5.19845 -1.659135,7.00617 -0.967017,1.39457 1.640456,4.24089 1.640456,4.24089 l -39.42143,-0.20064 c -3.157414,-0.0161 -5.699377,-2.54193 -5.699377,-5.69938 V 83.035315 c 0,-3.157455 2.541922,-5.699378 5.699377,-5.699378 z"
       sodipodi:nodetypes="ssscsssscssss" /><g
       id="g11"><ellipse
         style="fill:#000000;fill-opacity:0;stroke:#000000;stroke-width:2.55442;stroke-linecap:round;stroke-linejoin:round;stroke-dasharray:none;stroke-opacity:1"
         id="path2"
         cx="50.591061"
         cy="103.2967"
         rx="11.177919"
         ry="11.055457" /><circle
         style="fill:#000000;fill-opacity:1;stroke:#000000;stroke-width:2.45851;stroke-linecap:round;stroke-linejoin:round;stroke-dasharray:none;stroke-opacity:1"
         id="path3"
         cx="50.560074"
         cy="103.3541"
         r="4.6637468" /></g><g
       id="g10"
       transform="translate(-5.356593,4.2346467)"><rect
         style="fill:none;fill-opacity:1;stroke:#000000;stroke-width:0.858;stroke-linecap:round;stroke-linejoin:round;stroke-dasharray:none;stroke-opacity:1"
         id="rect3"
         width="11.68328"
         height="11.581049"
         x="65.736145"
         y="77.335938"
         ry="3.4786711" /><circle
         style="fill:none;fill-opacity:1;stroke:#000000;stroke-width:0.857999;stroke-linecap:round;stroke-linejoin:round;stroke-dasharray:none;stroke-opacity:1"
         id="path4"
         cx="71.602036"
         cy="82.866455"
         r="3.6367877" /></g><rect
       style="fill:#000000;fill-opacity:1;stroke:#000000;stroke-width:0.721982;stroke-linecap:round;stroke-linejoin:round;stroke-dasharray:none;stroke-opacity:1"
       id="rect4"
       width="9.0096827"
       height="2.3960443"
       x="29.93483"
       y="74.481262"
       ry="0.7189514" /><g
       id="g12"
       transform="translate(1.0583334,4.2333335)"><rect
         style="fill:none;fill-opacity:1;stroke:#000000;stroke-width:0.858;stroke-linecap:round;stroke-linejoin:round;stroke-dasharray:none;stroke-opacity:1"
         id="rect4-2"
         width="10.354145"
         height="3.8362961"
         x="60.827114"
         y="68.778709"
         ry="1.1511099" /><g
         id="g9"><path
           style="fill:none;fill-opacity:1;stroke:#000000;stroke-width:0.334;stroke-linecap:round;stroke-linejoin:round;stroke-dasharray:none;stroke-opacity:1"
           d="m 62.87919,69.715948 v 1.961819"
           id="path5" /><path
           style="fill:none;fill-opacity:1;stroke:#000000;stroke-width:0.334;stroke-linecap:round;stroke-linejoin:round;stroke-dasharray:none;stroke-opacity:1"
           d="m 64.466691,69.715948 v 1.961819"
           id="path6" /><path
           style="fill:none;fill-opacity:1;stroke:#000000;stroke-width:0.334;stroke-linecap:round;stroke-linejoin:round;stroke-dasharray:none;stroke-opacity:1"
           d="m 66.054192,69.715948 v 1.961819"
           id="path7" /><path
           style="fill:none;fill-opacity:1;stroke:#000000;stroke-width:0.334;stroke-linecap:round;stroke-linejoin:round;stroke-dasharray:none;stroke-opacity:1"
           d="m 67.641693,69.715948 v 1.961819"
           id="path8" /><path
           style="fill:none;fill-opacity:1;stroke:#000000;stroke-width:0.334;stroke-linecap:round;stroke-linejoin:round;stroke-dasharray:none;stroke-opacity:1"
           d="m 69.229194,69.715948 v 1.961819"
           id="path9" /></g></g><circle
       style="fill:#ff0000;fill-opacity:1;stroke:#ffffff;stroke-width:0.949377;stroke-linecap:round;stroke-linejoin:round;stroke-dasharray:none;stroke-opacity:1"
       id="path12"
       cx="31.690508"
       cy="83.035316"
       r="2.1992452" /><path
       style="fill:#000000;stroke-width:0.282248;stroke-dasharray:none"
       d="m 123.69726,130.77192 c 0.10463,-0.45348 0.1608,-0.39686 -2.37189,-2.39108 -3.88973,-3.06275 -4.23115,-3.44545 -5.44183,-6.09972 -3.65374,-8.01042 -7.98065,-14.9282 -10.47734,-16.75098 -0.78398,-0.57235 -0.87152,-0.60998 -2.07166,-0.89001 -2.95687,-0.68997 -8.647379,-1.37674 -12.994958,-1.56834 -2.243321,-0.0989 -3.064856,0.11626 -4.100232,1.07368 -0.489273,0.45244 -0.489273,0.45244 -1.773655,-0.0418 -3.824647,-1.47158 -5.410713,-1.65323 -7.046269,-0.80697 -2.559282,1.3242 -3.904982,3.77062 -3.441705,6.25686 0.186685,1.00188 0.230579,0.88649 -0.418813,1.10103 -1.725654,0.57012 -2.863377,2.32979 -3.265417,5.0505 -0.195417,1.32243 0.04951,3.19008 0.515467,3.93051 0.262639,0.41736 0.272371,0.48771 0.08978,0.64923 -1.283809,1.13572 -1.804839,2.07833 -2.105597,3.80935 -0.382114,2.19925 0.220832,4.10441 1.617794,5.11187 0.717808,0.51766 0.717808,0.51766 0.463581,0.72891 -2.648683,2.20095 -1.233303,6.6306 2.463782,7.71078 0.792962,0.23168 0.879011,0.28005 1.382715,0.77707 3.024609,2.9845 6.400133,5.46095 10.847934,7.95858 6.31127,3.54404 9.842081,4.44804 16.234033,4.1564 2.55922,-0.11677 3.59817,0.14723 4.82776,1.22676 0.8713,0.76495 0.93415,0.79853 1.32135,0.70556 0.44656,-0.10722 0.5924,-0.2973 0.57361,-0.74761 -0.0227,-0.54445 -0.36717,-0.92786 -1.48839,-1.6568 -1.6844,-1.09507 -2.61533,-1.27489 -5.87818,-1.1354 -3.478412,0.1487 -6.089581,-0.16746 -8.586889,-1.03969 -3.917577,-1.36828 -10.200092,-4.98956 -13.674978,-7.88233 -1.929603,-1.60636 -1.939593,-1.53706 0.176359,-1.22448 4.870387,0.71949 6.889485,0.70891 8.035854,-0.0421 1.848715,-1.21109 2.531612,-4.30283 1.36706,-6.18921 -0.297726,-0.48227 -0.304198,-0.53026 -0.0905,-0.67109 0.12658,-0.0834 0.490601,-0.51282 0.808927,-0.95421 1.361699,-1.88817 1.845768,-4.50552 1.109097,-5.99683 -0.169223,-0.34257 -0.20041,-0.52367 -0.101362,-0.58863 1.432275,-0.93943 2.699278,-3.74841 2.751467,-6.09956 0.02097,-0.94653 -0.20335,-1.39778 -1.04311,-2.09831 -0.392434,-0.32758 -0.66115,-0.60276 -0.59693,-0.61175 0.133275,-0.0187 3.439387,1.13298 3.440731,1.19856 4.84e-4,0.0236 -0.06733,0.3919 -0.150707,0.81843 -0.704659,3.60499 0.310399,7.38652 2.770449,10.32111 2.2544,2.68927 3.739042,3.915 4.494702,3.25766 0.52785,-0.45917 0.63747,-0.63833 -0.53225,-1.65773 -1.24725,-1.08697 -0.70423,-0.50962 -1.829802,-1.67492 -2.84908,-2.94963 -4.032371,-6.51272 -3.3045,-9.9504 0.12589,-0.59455 0.12589,-0.59455 0.73643,-0.4173 1.601754,0.465 1.391912,-1.03492 1.04437,-1.28558 -0.12897,-0.093 -4.530921,-1.65985 -5.747235,-2.04569 -0.284695,-0.0903 -0.284695,-0.0903 0.210406,-1.61237 0.535222,-1.64539 0.542122,-1.83805 0.07784,-2.17288 -0.673842,-0.48596 -1.028293,-0.15936 -1.500965,1.38304 -0.918957,2.99868 -2.621356,5.58044 -4.313748,6.54196 -1.034527,0.58775 -3.759103,0.74398 -4.437883,0.25446 -0.112481,-0.0811 0.245543,-1.14978 1.161265,-3.46625 0.639269,-1.61716 0.911378,-2.44541 1.651745,-5.02762 0.778261,-2.71438 1.814546,-4.54094 2.885768,-5.08646 0.770473,-0.39237 3.546784,-0.28549 8.952897,0.34465 4.821042,0.56194 7.075082,1.07135 7.860362,1.77641 2.36976,2.12771 7.20807,10.21832 10.00913,16.73725 0.30464,0.70899 0.72278,1.47792 0.97459,1.79219 1.23457,1.54079 6.52996,5.89924 7.14867,5.88383 0.3837,-0.01 0.68845,-0.27206 0.78087,-0.67261 z m -37.686745,6.72472 c -1.231065,0.5833 -10.778253,-0.66156 -12.947831,-1.68826 -1.808138,-0.85566 -2.564757,-3.20141 -1.410261,-4.37225 0.952527,-0.96601 1.733357,-1.09791 3.691149,-0.62352 3.18349,0.77138 7.143384,1.44708 9.702497,1.6556 1.19821,0.0976 1.31755,0.12895 1.63173,0.42817 1.267789,1.20741 0.882129,3.86614 -0.667284,4.60026 z m 1.232963,-6.77509 c -0.800511,0.4582 -5.596126,-0.12328 -10.950747,-1.3278 -5.073115,-1.1412 -5.718566,-1.53134 -5.940851,-3.59088 -0.297529,-2.75668 1.282705,-4.93207 3.108326,-4.279 2.309416,0.82614 6.551907,1.79376 10.903062,2.48677 3.734256,0.59474 4.015831,0.69313 4.459981,1.55836 0.674501,1.31397 -0.273093,4.40462 -1.579771,5.15255 z m 2.150505,-7.81295 c -0.861154,0.52823 -13.882624,-2.11374 -16.487973,-3.34531 -1.790559,-0.84642 -1.169243,-6.15816 0.840407,-7.18478 1.071466,-0.54736 1.706619,-0.498 3.748501,0.29132 0.823425,0.31831 2.132739,0.7937 2.909589,1.05643 0.776847,0.26273 1.443005,0.52011 1.48035,0.57195 0.03735,0.0518 -0.168688,0.69033 -0.457845,1.41886 -1.280094,3.22517 -1.130741,3.98134 0.884134,4.47638 2.939307,0.72215 5.354451,-0.0766 7.375257,-2.43916 0.677305,-0.79185 0.624922,-0.78533 1.371246,-0.17065 0.826232,0.6805 -0.378539,4.53665 -1.663666,5.32496 z m -8.638656,-10.77912 c -2.709939,-0.9244 -4.662363,-1.71999 -4.89309,-1.99386 -0.298319,-0.35411 -0.464694,-1.4124 -0.337735,-2.14826 0.30848,-1.788 2.558009,-3.77852 4.084364,-3.6141 0.719146,0.0775 2.070572,0.44725 3.441831,0.9418 2.060447,0.74309 1.904342,0.53703 1.350457,1.78272 -0.476173,1.07092 -0.957001,2.5586 -1.440752,4.45769 -0.14011,0.55004 -0.284323,1.04381 -0.320474,1.09726 -0.0361,0.0535 -0.884225,-0.182 -1.884601,-0.52325 z"
       id="path13"
       sodipodi:nodetypes="csssccscssssscssssssssssssssscssssccccscsssssssssssssssssssscccsssscssssssssssssssssssssssscssscs" /><path
       style="fill:#ff0000;fill-opacity:1;stroke:none;stroke-width:0.7;stroke-linecap:round;stroke-linejoin:round;stroke-dasharray:none;stroke-opacity:1"
       d="m 79.169254,103.26065 c 0,0 -3.549047,-0.95695 -3.877908,4.93767 -0.328864,5.89462 -1.6815,3.16197 -2.847983,3.43906 -1.998178,0.47465 -1.675439,4.43487 -0.897898,6.09556 0.777544,1.66069 0.958469,5.47073 0.958469,6.22074 0,0.75001 -0.74762,3.08926 -0.831315,3.69524 -0.0837,0.60598 -0.474261,4.98115 -0.474261,4.98115 0,0 -0.876101,5.49087 0.372915,6.47545 1.249016,0.98457 0.529917,-9.55553 1.476346,-10.22431 0.845687,-0.5976 1.241593,-8.82459 1.166114,-9.6903 -0.21101,-2.42017 0.300769,15.08177 2.520415,15.51608 0.09436,-0.44493 -0.341587,-3.78492 -0.548256,-5.9452 -0.384674,-4.02094 0.809751,-7.01707 1.341422,-8.05309 0.7251,-1.41293 1.607274,6.44629 1.892455,6.90013 1.013306,1.6126 -2.4267,10.15692 0.451631,10.77909 2.878331,0.62218 0.685951,-0.70933 0.33737,-3.24801 -0.348583,-2.53868 -0.239723,-1.59371 0.369972,-4.16615 0.609696,-2.57244 2.152332,-2.44236 0.823988,-5.57656 -1.328338,-3.13421 -2.329175,-3.01314 -1.766253,-5.31337 0.562922,-2.30024 -0.400629,-1.39215 0.246807,-4.12403 0.647435,-2.73188 0.73424,-1.9479 1.018643,-4.75636 0.284403,-2.80846 1.46368,-1.97353 0.567417,-5.00739 -0.896263,-3.03387 -1.138653,-2.96716 -1.604952,-3.03387 -0.466299,-0.0667 -0.695142,0.0985 -0.695142,0.0985 z"
       id="path14"
       sodipodi:nodetypes="cssssscssscsssssssssssscc" /></g></svg>
